<svg width="182" height="98" viewBox="0 0 182 98" fill="none" xmlns="http://www.w3.org/2000/svg">
<path d="M74.5365 97.328C67.4538 97.328 61.8645 95.4507 57.7685 91.696C53.6725 87.9413 49.8752 80.9013 46.3765 70.576C42.9632 60.1653 38.6965 43.6533 33.5765 21.04H26.2805L25.3845 1.072C31.6138 1.072 36.5205 2.69333 40.1045 5.936C43.6885 9.17866 46.9738 15.408 49.9605 24.624C53.0325 33.84 56.8725 48.688 61.4805 69.168L73.8965 69.296L74.5365 97.328ZM13.4805 97.328C8.8725 97.328 5.5445 96.176 3.4965 93.872C1.4485 91.568 0.4245 87.856 0.4245 82.736C0.4245 78.5547 0.979167 72.1973 2.0885 63.664C3.28317 55.1307 5.62983 40.6667 9.1285 20.272L3.4965 8.88C11.6032 3.67466 18.9418 1.072 25.5125 1.072C30.9738 1.072 33.7045 4.4 33.7045 11.056C33.7045 12.5067 33.2352 15.92 32.2965 21.296C31.4432 26.672 30.4618 32.3893 29.3525 38.448C27.3898 49.8827 25.8965 58.7573 24.8725 65.072C23.9338 71.3013 23.4645 75.7387 23.4645 78.384C23.4645 81.712 23.7205 84.4853 24.2325 86.704C24.8298 88.8373 25.7685 90.7573 27.0485 92.464C22.7818 95.7067 18.2592 97.328 13.4805 97.328ZM74.5365 97.328C70.0138 97.328 66.6858 96.176 64.5525 93.872C62.5045 91.4827 61.4805 87.728 61.4805 82.608C61.4805 78.4267 62.0778 72.0693 63.2725 63.536C64.4672 55.0027 66.8138 40.5387 70.3125 20.144L65.1925 8.752C73.0432 3.54666 80.1685 0.943993 86.5685 0.943993C92.1152 0.943993 94.8885 4.27199 94.8885 10.928C94.8885 12.3787 94.4192 15.792 93.4805 21.168C92.6272 26.544 91.6458 32.2613 90.5365 38.32C88.6592 48.9013 87.1658 57.5627 86.0565 64.304C85.0325 71.0453 84.5205 75.7387 84.5205 78.384C84.5205 81.712 84.7765 84.4853 85.2885 86.704C85.8858 88.8373 86.8245 90.7573 88.1045 92.464C83.7525 95.7067 79.2298 97.328 74.5365 97.328ZM136.165 97.328C131.471 97.328 128.101 96.048 126.053 93.488C124.09 90.928 123.109 86.8747 123.109 81.328C123.109 76.8053 123.834 69.5947 125.285 59.696C126.821 49.712 129.423 34.3947 133.093 13.744L155.621 18.096L152.805 34.224C150.586 46.8533 148.922 56.496 147.813 63.152C146.703 69.808 146.149 74.416 146.149 76.976C146.149 83.888 147.343 89.0507 149.733 92.464C145.295 95.7067 140.773 97.328 136.165 97.328ZM165.093 26.928C162.362 26.928 159.546 26.7573 156.645 26.416C153.829 25.9893 150.501 25.392 146.661 24.624C143.077 23.9413 139.791 23.4293 136.805 23.088C133.903 22.6613 131.045 22.448 128.229 22.448L108.389 26.672C107.109 23.7707 106.469 20.4853 106.469 16.816C106.469 12.1227 107.919 8.58133 110.821 6.19199C113.722 3.71733 117.818 2.48 123.109 2.48C125.839 2.48 128.698 2.69333 131.685 3.12C134.671 3.46133 137.999 3.97333 141.669 4.656C145.509 5.424 148.794 6.02133 151.525 6.448C154.341 6.78933 157.157 7.00267 159.973 7.088L179.812 2.73599C181.093 5.552 181.733 8.83733 181.733 12.592C181.733 17.0293 180.239 20.528 177.253 23.088C174.351 25.648 170.298 26.928 165.093 26.928Z" fill="white"/>
</svg>
